<svg width="20" height="20" viewBox="0 0 20 20" fill="none" xmlns="http://www.w3.org/2000/svg">
<path d="M1.55555 20L8.55555 13C9.11111 13.4444 9.75 13.7963 10.4722 14.0556C11.1944 14.3148 11.963 14.4444 12.7778 14.4444C14.7963 14.4444 16.5046 13.7454 17.9028 12.3472C19.3009 10.9491 20 9.24074 20 7.22222C20 5.2037 19.3009 3.49537 17.9028 2.09722C16.5046 0.699074 14.7963 0 12.7778 0C10.7593 0 9.05093 0.699074 7.65278 2.09722C6.25463 3.49537 5.55556 5.2037 5.55556 7.22222C5.55556 8.03704 5.68518 8.80556 5.94444 9.52778C6.2037 10.25 6.55556 10.8889 7 11.4444L0 18.4444L1.55555 20ZM12.7778 12.2222C11.3889 12.2222 10.2083 11.7361 9.23611 10.7639C8.26389 9.79167 7.77778 8.61111 7.77778 7.22222C7.77778 5.83333 8.26389 4.65278 9.23611 3.68056C10.2083 2.70833 11.3889 2.22222 12.7778 2.22222C14.1667 2.22222 15.3472 2.70833 16.3194 3.68056C17.2917 4.65278 17.7778 5.83333 17.7778 7.22222C17.7778 8.61111 17.2917 9.79167 16.3194 10.7639C15.3472 11.7361 14.1667 12.2222 12.7778 12.2222Z" fill="#B22B24"/>
</svg>
